<svg xmlns="http://www.w3.org/2000/svg" viewBox="0 0 103.1 104.1"><style type="text/css">  
	.bookst0{fill:none;stroke:#FCB239;stroke-width:2;stroke-linecap:round;stroke-linejoin:round;stroke-miterlimit:10;}
</style><path class="bookst0" d="M5.1 91.7C3.9 65.7 2.7 39.7 1.5 13.7c15.2 9.2 34.2 8.3 51.8 11.2 10.8 1.8 21.1-4.9 30.9-9.6 4.1-1.9 8.2-4.1 12.6-5.3 -0.4 25.2 1.9 50.6 5.6 75.6 -14 1.8-24.5 12.7-38 16.5 -9.7 2.7-20.1 1.6-29.8-1S14.7 94.7 5.1 91.7z"/><path class="bookst0" d="M49.8 24.7c1.4 26.3 2.8 52.6 4.2 78.8"/><path class="bookst0" d="M58.9 53.2c10-1.9 19.8-4.9 29.1-9 0.4-0.2 0.9-0.4 1.2-0.8 0.3-0.4 0.3-1 0.3-1.5 -0.2-5.6-0.5-11.3-1-16.9 -8.7 0.3-17.2 2.4-25.1 6.1 -5 2.3-5.4 2.9-5.1 8.3C58.2 40.6 59.1 53.1 58.9 53.2z"/><path class="bookst0" d="M61.4 63.1c0.2 4.4 0.4 8.8 0.6 13.1 1.8-1.1 4.4 0.5 6.1-0.7 1.2-0.8 1.3-2.5 1.2-4 -0.2-3.7-0.8-7.4-1.6-11 -2.4-0.3-5 0.2-7 1.5"/><path class="bookst0" d="M73 59.6c4.9-0.2 9.7-1.4 14.1-3.5"/><path class="bookst0" d="M75.6 66.9c4.7-1.3 9.4-2.4 14.2-3.3"/><path class="bookst0" d="M76.6 76.3c5.1-2 10.2-3.7 15.4-5.4"/><path class="bookst0" d="M64.3 90.4c5.9-4.6 13.4-6.7 20.6-8.6 2.1-0.6 4.2-1.1 6.3-1.7"/><path class="bookst0" d="M10.5 30.8c2.7 0.4 5.3 0.7 8 1.1"/><path class="bookst0" d="M28.1 34.1c3.5 0.2 7.1 0.4 10.6 0.6"/><path class="bookst0" d="M9.5 39.1c2.5 1.1 5.3 1.6 8.1 1.4"/><path class="bookst0" d="M28.5 42.9c3.5 0.7 7 1.1 10.6 1.3"/><path class="bookst0" d="M9.2 51.2c3.1 0.6 6.2 1.1 9.3 1.7"/><path class="bookst0" d="M26.8 54.3c4.8 1 9.7 1.5 14.6 1.4"/><path class="bookst0" d="M8.7 64.2c3 1 6.2 1.2 9.3 0.7"/><path class="bookst0" d="M28.1 66.2c4.3-0.6 8.7-0.2 12.8 1.1"/><path class="bookst0" d="M8.7 73.7c3.3 0.9 6.7 1.4 10.2 1.7"/><path class="bookst0" d="M25 74.9c5.1 1.4 10.2 2.4 15.4 3"/><path class="bookst0" d="M9.2 84.8c3.2 0.5 6.5 1 9.7 1.6"/><path class="bookst0" d="M27.6 88.3c3.6 1.6 7.6 2.4 11.5 2.5"/><path class="bookst0" d="M48.2 23.7C38.1 15.8 27.2 8.8 15.8 3c-0.6 5.2-0.9 10.4-1 15.6"/><path class="bookst0" d="M49.3 24.4c11.7-5.4 21.5-14 31.2-22.5 2.1 3.9 3.2 8.3 3.4 12.7"/><path class="bookst0" d="M66.9 37.6c-0.4 1.7-0.2 3.6 0.9 4.9 0.9 1.1 2.3 1.7 3.6 2.1 2.4 0.6 5 0.5 7-0.8 1.8-1.2 2.9-3.3 2.8-5.5 -0.2-4.2-4-6.2-7.8-6.3C70.2 31.9 67.7 34.6 66.9 37.6z"/><path class="bookst0" d="M71.6 35.7c0.1 0.4 0.2 0.8 0.3 1.2"/><path class="bookst0" d="M74.9 35.7c0.1 0.1 0.2 0.2 0.3 0.3"/><path class="bookst0" d="M72.2 41c0.8 0.4 1.6 0.8 2.5 0.7s1.7-0.8 1.7-1.7"/></svg>