<svg xmlns="http://www.w3.org/2000/svg" viewBox="0 0 108.1 91.8"><style type="text/css">  
	.calendarst0{fill:none;stroke:#6D5B97;stroke-width:2;stroke-linecap:round;stroke-linejoin:round;stroke-miterlimit:10;}
</style><path class="calendarst0" d="M4 91.5c34.2-3 68.6-3.9 102.9-2.7 -0.6-26.9-1.8-53.9-3.6-80.7 -0.1-1.6-0.3-3.3-1.4-4.5 -1.4-1.5-3.7-1.6-5.7-1.5C80 2.3 63.8 2.9 47.6 3.7 40.1 4.1 32.5 4.5 25 5 20.7 5.3 5 4.1 2.1 7.2c-2.8 2.9 0.3 11.5 0.7 14.8 0.8 7.4 0.3 15.1 0.4 22.5C3.2 48.4 4.5 91.4 4 91.5z"/><path class="calendarst0" d="M3.3 29.7c15.3-2.6 30.8-4 46.4-4.1 18-0.2 36.2 1.3 53.9-2.1"/><path class="calendarst0" d="M11.6 54.7c3.3 0.7 6.8 0.6 10.1-0.4 0.1-3.1 0.1-6.3 0-9.4 0-0.4-0.1-0.8-0.3-1.1 -0.3-0.3-0.7-0.3-1.1-0.3 -2 0-7.2-0.4-8.5 1.3C11.2 45.5 11.2 54.7 11.6 54.7z"/><path class="calendarst0" d="M28 54.3c0 0.4 0 0.8 0.2 1.1 0.4 0.6 1.2 0.7 1.9 0.6 5.1-0.2 8.3-0.6 13.4-1.3 -0.7-4.2-1.4-8.5-2.1-12.7 -0.1-0.5-0.2-1-0.6-1.3 -0.4-0.2-0.8-0.2-1.3-0.1C36.2 41.4 33 41 30 43 27.2 44.9 28 51.3 28 54.3z"/><path class="calendarst0" d="M50.7 52.3c0 0.5 0 1 0.4 1.2 0.3 0.2 0.6 0.2 0.9 0.2 4.7-0.2 9.4-0.4 14.2-0.6 -0.5-4.4-0.6-8.9-0.1-13.3 -2.8-0.3-12.2-1.9-14.5 0.2C49.8 41.7 50.8 49.9 50.7 52.3z"/><path class="calendarst0" d="M75.2 52.9c0 0.3 0.1 0.6 0.3 0.7 0.2 0.2 0.5 0.2 0.7 0.2 5.2-0.2 10.3-0.6 15.5-1.2 -0.3-3.9-0.6-7.8-0.9-11.8 -3.1 0-11.7-1.4-14.2 0.2C74 42.6 75 49.9 75.2 52.9z"/><path class="calendarst0" d="M14.9 80.2c3.8-0.5 7.6-0.9 11.4-1.4 0.2 0 0.5-0.1 0.7-0.3 0.1-0.2 0.1-0.4 0.1-0.5 -0.2-4-0.5-8-0.7-12 -2.5 0.1-10.8-0.6-12.3 1.7C13.3 68.7 15.3 80.2 14.9 80.2z"/><path class="calendarst0" d="M32.8 79.1c5.1-1.6 10.4-2.6 15.7-3 -0.5-4.6-0.9-9.3-1.4-13.9 0-0.5-13.5 2.1-14.6 3.3C30.2 68 32.5 75.9 32.8 79.1z"/><path class="calendarst0" d="M56.7 76.8c4 0 8.1 0 12.1 0 0.3-4.1 0.5-8.2 0.8-12.3 0-0.2 0-0.5-0.1-0.6 -0.1-0.1-0.3-0.1-0.5-0.2 -2.9-0.3-9.4-1.7-11.5 1C56.6 65.8 57 76.8 56.7 76.8z"/><path class="calendarst0" d="M79.3 77.5c5.5-0.9 11.1-1.2 16.7-0.8 -0.4-4.3-0.8-8.6-1-13 0 0.5-13.3 0.4-14.3 1.2C78 66.8 79 74.5 79.3 77.5z"/><path class="calendarst0" d="M18.4 11.8c-1.6 0.4-3.1 1-4.3 2.2s-1.7 3-1.1 4.5c0.9 2 3.4 2.7 5.6 3 1.6 0.3 3.5 0.5 4.8-0.6 1.7-1.3 1.5-4 1.1-6.1 -0.1-0.7-0.3-1.5-0.9-2 -0.4-0.3-0.9-0.4-1.4-0.5 -1.6-0.3-3.2-0.3-4.8-0.2"/><path class="calendarst0" d="M13.5 13.9c-1.8-0.2-3.5-1-4.9-2.1"/><path class="calendarst0" d="M19.1 11.8c-0.5-1.1-0.5-2.5-0.1-3.7"/><path class="calendarst0" d="M23.7 13.6c1-0.2 2-0.4 3-0.7"/><path class="calendarst0" d="M24.7 18.4c1.2 1.4 2.9 2.3 4.6 2.6"/><path class="calendarst0" d="M18.8 22.1c-0.2 1.1-0.4 2.2-0.7 3.3"/><path class="calendarst0" d="M13 19.8H8"/><path class="calendarst0" d="M40.2 17.5c-0.2-1.3-0.3-2.8 0.4-3.9s2.4-1.8 3.4-1c1.3 1 1 3.2 2.4 4.2 1.3 0.9 3-0.1 4.1-1.2 1.1-1.1 2.1-2.5 3.7-2.6 3.1-0.2 5.1 5 8.1 3.9 2-0.8 2.2-4 4.2-4.6 1.6-0.4 3 1.1 3.8 2.5 0.8 1.5 1.5 3.2 3 3.8 1.7 0.6 3.5-0.4 4.7-1.7 1.2-1.3 2.2-2.8 3.8-3.7 2.7-1.4 6-0.3 8.8 0.9"/></svg>