<svg version="1.1" id="Isolation_Mode" xmlns="http://www.w3.org/2000/svg" xmlns:xlink="http://www.w3.org/1999/xlink" x="0px"
	 y="0px" viewBox="0 0 86.56 42.24" style="enable-background:new 0 0 86.56 42.24;" xml:space="preserve">
<path class="st0" d="M42.63,39.42c-6.29,1.05-12.66,1.69-19.03,1.92c-8.1,0.3-17.59-0.81-21.84-7.72c-1.27-2.07-1.92-4.61-1.34-6.96
	c1.26-5.13,9.04-7.01,12.51-3.04c-3.18-6.8-2.26-15.84,3.52-20.64s16.22-3.1,18.87,3.93c1.29,3.42,0.68,7.22,0.05,10.82
	c1.66-4.23,4.62-8.08,8.68-10.13s9.27-2.03,12.95,0.63c3.69,2.66,5.29,8.11,3.08,12.08c2.86-4.79,9.09-7.13,14.52-5.83
	c5.43,1.3,9.8,5.93,11.24,11.32c2.38,8.88-4.49,19.08-14.16,15.33c-3.95-1.53-6.17-3.53-10.76-3.77
	C54.78,37.04,48.64,38.42,42.63,39.42z"/>
</svg>
