<svg xmlns="http://www.w3.org/2000/svg" viewBox="0 0 94.7 92.7"><style type="text/css">  
	.fbst0{fill:none;stroke:#1180AE;stroke-width:2;stroke-linecap:round;stroke-linejoin:round;stroke-miterlimit:10;}
</style><path class="fbst0" d="M3.1 8.2C1.6 10.7 1.4 13.8 1.3 16.7 0.5 38.4 0.6 60.1 1.5 81.7c0.1 1.5 0.2 3.2 0.9 4.5 0.9 1.6 2.4 2.5 4.1 3.3 5.5 2.5 11.7 2.5 17.7 2.5 19.2 0 38.5-0.1 57.7-0.1 3.3 0 7-0.2 9.2-2.6 1.9-2.2 2-5.4 2-8.3 -0.3-21.1-0.7-42.2-1-63.3 0-2.3-0.1-4.7-1.4-6.7 -1.2-1.9-3.4-2.9-5.5-3.7 -14.8-5.8-31-4-46.5-3.7C29.7 3.6 8.7-1.2 3.1 8.2z"/><path class="fbst0" d="M48.1 91.2c-0.2-8.3-0.3-16.6-0.5-25 0-0.7-0.1-1.5-0.6-2 -0.5-0.5-1.4-0.5-2.2-0.5 -3.1 0-6.2 0-9.2 0 -0.5-4.9-1.1-9.9-1.6-14.8 4.2 0.6 8.4 0.4 12.6-0.4 -1.5-7.3-2.3-15.2 0.7-22.1s11.3-12.2 18.8-10c4.5 1.3 7.8 5 9.6 9.1s2.4 8.6 2.8 13c-2.9 0.3-5.8 0.7-8.6 1 -0.2-1.9-0.5-3.9-1.7-5.5 -1.2-1.6-3.7-2.4-5.3-1.3 -1.4 0.9-1.7 2.7-1.8 4.3 -0.4 4-0.5 8-0.2 12 5 0 10.1 0.1 15.1 0.1 -0.3 4.9-0.7 9.8-1 14.7 -5-0.1-10-0.2-15-0.3 0.4 9.8 1 19.6 2 29.3"/></svg>