<svg xmlns="http://www.w3.org/2000/svg" viewBox="0 0 170.1 17"><style type="text/css">  
	.wavest0{fill:none;stroke:#FFFFFF;stroke-width:2;stroke-linecap:round;stroke-linejoin:round;stroke-miterlimit:10;}
</style><path class="wavest0" d="M1.4 12.7C0.4 8.9 2.1 4.6 5.5 2.6s8.1-1.2 10.7 1.6c2.3 2.5 3.1 6.2 5.8 8.3 5.2 4.1 12.6-0.6 17.5-5.1s12.6-8.9 17.5-4.4c3.1 2.8 3.2 8 6.5 10.4 3.9 2.9 9.5 0.2 13.1-3.1s6.9-7.6 11.8-8.1c5.7-0.7 10.4 4.1 14.9 7.8 4.4 3.7 11.5 6.5 15.5 2.5 2.7-2.6 2.8-7.3 5.8-9.6 4.8-3.7 11.5 1.8 13.4 7.6 0.6 1.7 1 3.6 2.4 4.7 2.5 1.9 6.3 0 8.1-2.7s2.6-5.9 4.9-8.3c2.8-2.9 7.6-3.6 11-1.6 3.5 2 5.3 6.5 4.2 10.3"/></svg>